#!OML:ASF F:\VICON\USERDATA\INSTALL\rory3\rory3.ASF
:FULLY-SPECIFIED
:DEGREES
73
root 0.4440784019852474 17.673006897603056 22.339593876318077 -1.2792973459841916 1.2960561931901857 2.9451322377286724
lfemur 13.628802461591514 -2.5090957823106406 -28.26227559754261
ltibia 14.62041637937173
lfoot -6.010731437368501 -4.4541021449759
ltoes -7.731495467906851
rfemur -28.90008495007904 8.216191232024995 13.93542953296034
rtibia 14.953308025185326
rfoot -11.677360259602922 -15.704405844791193
rtoes 4.715093339385212
lowerback 1.0 -1.5239612664143258 -4.866881820740369
upperback 0.3831514131636883 -2.5587503753153853 1.3635516665372576
thorax -5.004649559076821 -1.1062907582283266 4.4382275812402785
lowerneck -16.030203945544805 -2.8706134934702443 -2.527292327012365
upperneck 21.6504945413108 -3.4668435938568334 1.2665319988277286
head 9.496638933183702 -1.645059973800391 0.33878280178471554
lclavicle 2.732835584797181e-16 1.3247712131523211e-15
lhumerus -20.964122266460077 -5.107951718472826 81.57940018130724
lradius 31.338114488012405
lwrist 7.495742313938443
lhand -24.860033673039474 27.596699363770387
lfingers nan
lthumb 1.8494618408458394 58.255134285994515
rclavicle -3.0773855870295487e-15 -8.695885400824199e-16
rhumerus -35.40385577390279 -27.70296284764251 -72.0863340660408
rradius 22.875384315779193
rwrist 8.515505189589526
rhand -19.97935336837714 1.0
rfingers nan
rthumb 6.507786388073495 -6.05494883835164
74
root 0.3540444637647236 17.60771540365841 23.299574108616376 -1.2997618393201518 1.3941714138119075 2.690609170036457
lfemur 15.233926989129747 -3.2530062528296355 -27.190070746341057
ltibia 17.74644756029547
lfoot -5.732923063688707 -3.3912510707652865
ltoes -13.925275333452461
rfemur -30.191245281416435 4.8365698285429755 17.035540778397603
rtibia 20.57853430777054
rfoot -6.833223049015709 -10.78544801562817
rtoes 1.7891979669697133
lowerback 1.0 -1.4468451037882926 -4.437698298357344
upperback 0.4771517156132735 -2.3972807150472204 1.6012636544349945
thorax -4.770330991018246 -1.051709010333831 4.496348590954959
lowerneck -16.22484253341966 -2.839464721786319 -2.5167810803298427
upperneck 21.312185744869893 -3.5240223725552955 1.2850928447828844
head 9.404058509438913 -1.676120636532087 0.3465799442280317
lclavicle 7.028107217902547e-16 -8.545874668664479e-16
lhumerus -20.29972548191253 -4.848003536077226 81.53108833183272
lradius 31.993574243018443
lwrist 7.560737852867689
lhand -24.44212541141336 27.013678297129484
lfingers nan
lthumb 2.333593290892796 57.845777399562316
rclavicle -1.8314826878623785e-15 -2.2934315479370534e-15
rhumerus -35.96647219391857 -29.33835321691459 -71.03149777391502
rradius 21.689966399543213
rwrist 10.197667266119742
rhand -19.867956887036463 1.0
rfingers nan
rthumb 6.454136677449844 -6.039055021501423
75
root 0.2567649300657295 17.58400253940127 24.015953973095936 -1.5171360367551636 1.216619601968405 1.819545601637133
lfemur 15.91836392208163 -4.666364354163441 -27.175331049175252
ltibia 21.183296398296967
lfoot -5.554381683584309 -3.729248532544685
ltoes -17.06363523044616
rfemur -30.12801013285126 4.415673560813318 18.309787384189537
rtibia 26.251704576749596
rfoot -4.578324182770496 -8.896020959044128
rtoes -4.040539273907113
lowerback 1.0 -1.4890654361922477 -4.517377197435845
upperback 0.5144699137117417 -2.378949704586803 1.6191475112333789
thorax -4.711525463444338 -1.0752103274582712 4.415394729840258
lowerneck -16.115128679471262 -2.699145765530695 -2.5120456996661127
upperneck 21.162590253195965 -3.358807426151716 1.6847599244858538
head 9.317355123968678 -1.5818299987007864 0.5545597603011332
lclavicle -1.7270181804658195e-15 -7.802062498100253e-16
lhumerus -20.817165173129343 -4.653853631671563 81.52487828060141
lradius 32.57572945087728
lwrist 8.064792758717125
lhand -27.98234597400523 21.850966635304346
lfingers nan
lthumb -1.4064917926524507 52.5677248991103
rclavicle 1.7013912623094532e-15 4.8265961229756676e-17
rhumerus -37.92450004157378 -31.741866611375052 -68.99807632383089
rradius 20.204799524829642
rwrist 12.230833040824002
rhand -19.021185090585426 1.0
rfingers nan
rthumb 7.370893068434588 -6.32639826081927
76
root 0.16923582283208918 17.60969160886752 25.09258809585027 -1.814476921206467 1.0137815641866248 0.6534117593238447
lfemur 15.275970775429455 -5.831307423297507 -25.021642453653367
ltibia 27.983973832981558
lfoot -3.9354775375411526 -5.859404211866663
ltoes -18.001145471409046
rfemur -28.974693418641245 5.446812274564855 20.852044400277705
rtibia 28.210478340262625
rfoot -1.7641417046860806 -5.63576543751511
rtoes -0.09564412681429246
lowerback 1.0 -1.4315719601793007 -2.0296518403210193
upperback 0.4056040482611738 -2.134317869276721 2.1357920903671155
thorax -4.8595029292748695 -0.9654310760107482 3.690036070586874
lowerneck -16.05645247527159 -2.5771995863732404 -2.556554325954904
upperneck 21.353023590857774 -2.9925334025483235 1.3414606656724537
head 9.325098667796727 -1.4474729465498135 0.4966081924982421
lclavicle 3.7225439005681e-15 -1.876857043557469e-15
lhumerus -21.745662665051015 -4.2084626628438695 82.00104774199619
lradius 31.944808968265058
lwrist 8.301873747308024
lhand -29.793807845749903 20.474816953339424
lfingers nan
lthumb -3.01972964103709 50.28682673228154
rclavicle 2.4978786097465793e-15 -2.765033406413264e-15
rhumerus -39.499209895509125 -33.52381544974404 -66.76671971286451
rradius 18.476955397105186
rwrist 15.235904896328021
rhand -18.964768480645887 1.0
rfingers nan
rthumb 7.553823286233614 -6.227247633546626
77
root 0.08003478803725067 17.668238094519555 25.88793839749168 -2.2158892112462163 0.7454498845249442 -0.7267582609638905
lfemur 12.651399083907572 -4.412845177010424 -23.389484266010488
ltibia 36.65292068252175
lfoot 0.6634114233992063 -8.00938293471067
ltoes -21.275029834968375
rfemur -27.72638326940438 4.201418833818218 22.829053360939497
rtibia 31.835451175983742
rfoot -1.7895435749300468 -4.099453748772878
rtoes 5.782141668201236
lowerback 1.0 -1.3124733605602952 -1.1329073789908073
upperback 0.5250876750668777 -1.872829516043276 2.2357606906299936
thorax -4.276014503689454 -0.8789745460390271 3.2864469414403397
lowerneck -16.33177325669994 -2.508512148718378 -2.3716370274402254
upperneck 21.739874653727483 -2.7482001025928176 0.8829538654492712
head 9.542289044054831 -1.3679124062686494 0.33152218924377136
lclavicle 8.979498381563105e-16 -1.7286347976343834e-15
lhumerus -22.637506755730044 -2.6875372838184792 82.34398215419706
lradius 30.90585130000002
lwrist 7.739761362853159
lhand -28.15426162155281 23.989245087323667
lfingers nan
lthumb -1.7955067945582868 53.094896439180665
rclavicle -1.1355701007008802e-15 -4.956366272179641e-15
rhumerus -40.20593328955456 -35.058546919581936 -65.49610340489966
rradius 17.247675161486065
rwrist 17.301355130108217
rhand -18.843297018659275 1.0
rfingers nan
rthumb 7.63156278230623 -7.00326451036131
78
root -0.013288614208347538 17.744197991307626 26.42196078287948 -2.660830931349768 0.5763022461790142 -2.1539234145708495
lfemur 8.116717556377955 -3.305908467183169 -20.431791256035762
ltibia 46.01941896119095
lfoot 6.266356880635765 -11.501482892362182
ltoes -13.344249406263962
rfemur -24.33142451990593 4.509123092284392 25.610071659545092
rtibia 32.96393233764798
rfoot -3.3565279920254967 -4.531683031437996
rtoes 9.843213112106952
lowerback 1.0 -1.02960171419373 0.4503274098529533
upperback 0.32699580688282626 -1.4927091645032944 2.442824478105171
thorax -4.836660071950504 -0.6470510659279357 2.756808855053758
lowerneck -15.8126751887799 -2.5075608454289835 -2.221253050856659
upperneck 21.35880803814375 -2.886661147348719 0.8927133477566488
head 9.33070924839459 -1.4218973912165693 0.309833695616149
lclavicle -3.928889536585398e-15 -4.00739392359434e-15
lhumerus -24.153002694423837 -2.3791021272974286 82.66933155865073
lradius 30.404031987090747
lwrist 6.872509187495319
lhand -26.770972000874032 25.487454578389006
lfingers nan
lthumb -0.009305247462454425 56.32682550326714
rclavicle -4.619231032302679e-15 -6.1513136716747985e-15
rhumerus -40.68761077803322 -34.71027864485516 -65.40261553942426
rradius 17.112990494883785
rwrist 16.746209524990277
rhand -18.7941682415578 1.0
rfingers nan
rthumb 7.442264265571776 -7.614949891976188
79
root -0.10038957082890654 17.81861709528715 27.18783734758079 -3.067715574719827 0.40297235318464764 -3.473829829021406
lfemur 1.8073175510635338 -2.674384166849734 -17.105942646141827
ltibia 56.096489715018606
lfoot 11.190115419452928 -13.89194444007583
ltoes 0.7316669814197869
rfemur -20.811452814530444 5.256951026612407 28.51585838632826
rtibia 32.39002288132656
rfoot -5.331103555297324 -4.921357926914917
rtoes 11.374971318901956
lowerback 1.0 -0.861881089037943 2.2046135071775943
upperback 0.4273906209329673 -1.0717863970124113 2.7342488030440686
thorax -4.869124161721351 -0.4657844964393727 2.089348545612298
lowerneck -15.89172987495581 -2.5957996444220055 -2.318714776526098
upperneck 21.120798876500004 -3.0556565802888622 1.268021428869861
head 9.218099358385965 -1.4760285619041869 0.4476551142964629
lclavicle 3.5298818178603663e-16 -4.5973383869936165e-15
lhumerus -25.46484339368847 -2.0542870864764144 83.1963419921864
lradius 29.89309381913749
lwrist 5.968889407893015
lhand -27.342137263820405 24.94830748297597
lfingers nan
lthumb -1.1456775377033712 54.35741590157212
rclavicle 2.923497970911663e-15 -3.235876341049648e-15
rhumerus -38.91138381588412 -32.35304250744889 -68.09571782367095
rradius 17.424132867492165
rwrist 15.480411074435704
rhand -18.751677635311992 1.0
rfingers nan
rthumb 7.531901588765445 -8.193707396307785
